<svg xmlns="http://www.w3.org/2000/svg" width="275.971" height="230.736" viewBox="0 0 275.971 230.736">
  <path id="Icon_metro-language" data-name="Icon metro-language" d="M122.273,141.005q-.179.386-2.246-.064t-5.66-1.481l-3.594-1.159a124.567,124.567,0,0,1-15.631-6.309q-1.258-.644-7.367-4.056t-6.827-3.67a242.8,242.8,0,0,1-24.075,23.305Q42.32,159.8,38.009,161.735a19.177,19.177,0,0,1-3.5.515,9.578,9.578,0,0,1-3.323,0q1.078-.515,14.732-11.846,3.773-3.09,15.362-14.807t14.1-15.194q3.054-3.863,9.163-12.683t6.468-9.979q-1.437-.129-19.764,4.249-1.437.258-4.941.966t-6.2,1.223q-2.695.515-3.054.644-.359.258-.359,1.352t-.179,1.223q-.9,1.288-5.57,1.931a20,20,0,0,1-8.444,0,7.826,7.826,0,0,1-5.031-2.7,5.1,5.1,0,0,1-.9-2.961q1.078-.258,4.4-.644t5.3-.773q10.421-2.06,18.865-4.12,17.967-4.507,18.326-4.507a49.079,49.079,0,0,0,7.726-2.511q5.929-2.253,7.905-2.768,1.617-.386,3.863-1.03t2.605-.708a3.325,3.325,0,0,1,1.078.064,10.561,10.561,0,0,1-.18,4.249,24.552,24.552,0,0,1-2.246,3.477q-2.246,3.219-4.761,6.888T96.4,105.6a191.429,191.429,0,0,1-13.835,16.867l11.5,3.605q2.156.773,13.385,4.12t12.128,3.605q.719.129,1.887,3.283t.808,3.927ZM85.441,78.429a3.955,3.955,0,0,1-.719,3.605Q82.566,85,75.739,86.927a38.966,38.966,0,0,1-10.781,1.545,17.386,17.386,0,0,1-8.8-3.348,8.715,8.715,0,0,1-3.234-5.279l.18-.386a10.084,10.084,0,0,0,3.5.644,21.741,21.741,0,0,0,4.761,0q1.8-.258,10.421-2.06a68.482,68.482,0,0,1,9.882-1.8q3.054,0,3.773,2.189ZM210.85,95.038l11.319,29.228L197.2,118.859ZM11.777,198.045l124.69-29.872V35.295l-124.69,30v132.75Zm222.969-40.817,18.326,3.991-32.52-84.594-17.967-3.991-38.809,69.015L182.1,145.64l8.085-14.163,37.91,8.369ZM144.372,33.363,247.323,57.055V8.126Zm55.877,170.348,28.388,1.674-9.7,20.6-7.187-8.5a167.447,167.447,0,0,1-49.589,13.906,118.629,118.629,0,0,1-16.35,1.545H130.718q-14.194,0-35.844-5.022T61.9,216.973a2.514,2.514,0,0,1-1.437-2.06,2.14,2.14,0,0,1,.9-1.738,3.661,3.661,0,0,1,2.336-.708,12.7,12.7,0,0,1,3.234.966q2.515.966,5.48,2.125t3.683,1.416a201.2,201.2,0,0,0,28.657,7.919,143.337,143.337,0,0,0,28.3,3.155,212.474,212.474,0,0,0,30.005-1.867,192.6,192.6,0,0,0,28.208-6.5q2.695-.9,5.48-2t6.109-2.446q3.323-1.352,5.121-2.125ZM280.741,64.78V203.71L141.677,172.036q-2.515.773-67.376,16.417T8.183,204.1a3.344,3.344,0,0,1-3.234-1.674.809.809,0,0,0-.179-.386V63.235a5.026,5.026,0,0,1,.718-1.288,9.261,9.261,0,0,1,3.594-1.416q19.044-4.507,26.77-6.438V4.65L136.108,30.144q.359,0,28.837-7.082T221.72,9.092Q250.018,2.2,250.736,2.2q3.594,0,3.594,2.7V58.728Z" transform="translate(-4.77 -2.203)" fill="#fff"/>
</svg>
