<svg xmlns="http://www.w3.org/2000/svg" width="275.971" height="230.736" viewBox="0 0 275.971 230.736">
  <path id="Icon_awesome-laptop-code" data-name="Icon awesome-laptop-code" d="M109.97,117.914a6.691,6.691,0,0,0,9.758,0l4.877-5.1a7.443,7.443,0,0,0,0-10.2L109.2,86.526l15.4-16.1a7.443,7.443,0,0,0,0-10.2l-4.877-5.1a6.691,6.691,0,0,0-9.758,0L84.809,81.424a7.443,7.443,0,0,0,0,10.2l25.161,26.291Zm41.4-5.092,4.877,5.1a6.691,6.691,0,0,0,9.758,0l25.156-26.291a7.443,7.443,0,0,0,0-10.2L166.005,55.138a6.691,6.691,0,0,0-9.758,0l-4.877,5.1a7.443,7.443,0,0,0,0,10.2l15.4,16.093-15.4,16.1a7.443,7.443,0,0,0,0,10.2Zm117.7,74.651H164.522c-.319,8.927-6.343,14.421-14.118,14.421H124.187c-8.059,0-14.238-7.873-14.131-14.421H6.9a7.081,7.081,0,0,0-6.9,7.21v7.21c0,15.863,12.419,28.842,27.6,28.842H248.374c15.178,0,27.6-12.979,27.6-28.842v-7.21A7.081,7.081,0,0,0,269.072,187.473Zm-20.7-165.841c0-11.9-9.314-21.631-20.7-21.631H48.295C36.911,0,27.6,9.734,27.6,21.631v151.42H248.374Zm-27.6,122.578H55.194V28.842H220.777Z" fill="#fff"/>
</svg>
