<svg xmlns="http://www.w3.org/2000/svg" width="909.924" height="752.725" viewBox="0 0 909.924 752.725">
  <path id="Icon_awesome-mail-bulk" data-name="Icon awesome-mail-bulk" d="M252.757,658.634c-40.441,0-80.882-32.932-101.1-47.045C50.551,545.725,20.221,522.2,0,508.089v197.59c0,25.978,22.638,47.045,50.551,47.045H454.962c27.914,0,50.551-21.068,50.551-47.045V508.089c-20.221,14.114-50.551,37.636-151.654,103.5C333.639,625.7,293.2,658.634,252.757,658.634ZM454.962,376.362H50.551C22.638,376.362,0,397.43,0,423.408V446.93c40.441,28.227,35.386,28.227,181.985,127.022,15.165,9.409,45.5,37.636,70.772,37.636s55.606-28.227,70.772-32.932c146.6-98.8,141.544-98.8,181.985-127.022V423.408C505.513,397.43,482.876,376.362,454.962,376.362ZM859.372,235.226H353.859c-27.914,0-50.551,21.067-50.551,47.045v47.045H454.962c52.463,0,95.716,37.372,100.645,85l.458-.323v197.59H859.372c27.914,0,50.551-21.067,50.551-47.045V282.272C909.924,256.294,887.286,235.226,859.372,235.226ZM808.821,423.408h-101.1V329.317h101.1ZM252.757,282.272c0-51.882,45.354-94.091,101.1-94.091H707.719V47.045C707.719,21.067,685.081,0,657.167,0H151.654C123.74,0,101.1,21.067,101.1,47.045V329.317H252.757Z" fill="#fff"/>
</svg>
